<svg xmlns="http://www.w3.org/2000/svg" viewBox="0 0 441.4439 176.5776"><g id="Layer_2" data-name="Layer 2"><g id="Components"><g id="_44312e9e-5f83-4baa-b4f4-4e237220d10d_5" data-name="44312e9e-5f83-4baa-b4f4-4e237220d10d@5"><path d="M0,44.1444H44.1445V176.5776h43.91V0h-73.34Z" style="fill:#fff"/><path d="M103.0036,58.8592V176.5776H147.148v-73.574H264.8664V58.8592Z" style="fill:#fff"/><path d="M195.38,0H103.0036V44.1444H264.8664L264.8065,0Z" style="fill:#fff"/><polygon points="441.384 66.217 371.958 66.217 363.928 66.217 323.726 66.217 323.726 44.144 299.105 44.144 296.756 44.144 279.581 44.144 279.581 66.217 279.581 101.833 279.581 110.361 371.958 110.361 397.3 110.361 397.3 132.433 279.581 132.433 279.581 176.578 441.444 176.578 441.444 132.433 441.444 74.744 441.396 74.744 441.384 66.217" style="fill:#fff"/><rect x="323.785" width="117.6589" height="44.1444" style="fill:#fff"/></g></g></g></svg>